<svg xmlns="http://www.w3.org/2000/svg" fill="none" viewBox="0 0 43 12"><path fill="#EB0029" fill-rule="evenodd" d="M4.878 1.508a1.917 1.917 0 0 0-2.515 2.894L8.15 9.43l1.382 1.202a2 2 0 0 0 2.822-.198l1.203-1.384 1.64-1.884a2 2 0 0 1 2.82-.197l2.83 2.46 1.385 1.203a2 2 0 0 0 2.822-.198l1.2-1.384 1.637-1.881a2 2 0 0 1 2.821-.197L33.54 9.43l1.384 1.202a2 2 0 0 0 2.822-.198l1.201-1.384 2.515-2.892a1.917 1.917 0 1 0-2.893-2.515l-1.202 1.383a2 2 0 0 1-2.822.198l-4.818-4.187a1.2 1.2 0 0 0-1.693.118l-1.726 1.987v.001c.001 0 .002.001.001.002l-2.023 2.328a1.407 1.407 0 0 1-1.986.14L17.64 1.561a2 2 0 0 0-2.822.198l-.38.437-2.46 2.83a2 2 0 0 1-2.822.198L4.878 1.508Z" clip-rule="evenodd"/></svg>
