<svg xmlns="http://www.w3.org/2000/svg" fill="none" viewBox="0 0 118 155"><rect width="118" height="155" fill="#EB0029" rx="15"/><rect width="70" height="70" x="23" y="19" fill="#fff" rx="35"/><path fill="#FD624B" d="M78.574 43.148H52.126v21.733h26.448V43.148Z"/><path fill="#fff" d="M78.574 43.148H52.126v21.733h26.448V43.148Z" opacity=".3"/><path fill="#FD624B" d="M58.647 43.148H38.15v21.733h20.498V43.148Z"/><path fill="#fff" d="M58.647 43.148H38.15v21.733h20.498V43.148Z" opacity=".1"/><path fill="#fff" d="M51.298 43.148h-5.8v6.763h5.8v-6.763Z" opacity=".3"/><path fill="#000" d="M72.939 43.148h-5.8v6.763h5.8v-6.763Z" opacity=".1"/><path fill="#fff" d="M67.454 55.938h-.765a6.074 6.074 0 0 1 0-.663c0-.347.266-1.015.75-.712.15.091.325-.12.174-.212a.769.769 0 0 0-1.152.549 3.66 3.66 0 0 0-.048 1.029h-.44c-.175 0-.224.264-.044.27h.484v1.27c0 .177.276.143.276-.03v-1.236h.716c.18.01.228-.26.049-.265ZM68.722 55.342a.121.121 0 0 0-.058 0c-1.254-.091-1.056 1.948.145 1.924.257-.037.49-.167.656-.365.165-.198.25-.45.24-.708a.832.832 0 0 0-.614-.831.849.849 0 0 0-.37-.02Zm.189 1.63c-.906.236-1.196-1.442-.267-1.341a.165.165 0 0 0 .088 0c.871-.13.871 1.159.179 1.342ZM71.714 55.847c-.373-1.202-2.251-.216-1.714.88a1.055 1.055 0 0 0 1.336.39.843.843 0 0 0 .497-.52.831.831 0 0 0-.09-.711l-.03-.039Zm-1.496.688c-.257-.731.968-1.443 1.24-.577a.104.104 0 0 0 .052.072c.475.842-1.03 1.265-1.292.505ZM73.815 57.175c-.082-1.107-.16-2.213-.242-3.314 0-.178-.286-.145-.276.028l.102 1.395a1.018 1.018 0 0 0-1.192.46c-.076.133-.12.282-.13.435-.039.745.833 1 1.452.919v.105c.025.174.3.145.286-.028Zm-1.452-.876a.737.737 0 0 1 .283-.631.747.747 0 0 1 .685-.124.16.16 0 0 0 .082 0c.034.423.063.847.097 1.275-.421.057-1.085-.03-1.157-.52h.01ZM20.063 107.926l-3.068 5.915V117h-1.82v-3.159l-3.08-5.915h2.053l1.95 4.147 1.937-4.147h2.028Zm4.248 9.191c-.694 0-1.317-.152-1.872-.455a3.416 3.416 0 0 1-1.313-1.313c-.312-.563-.468-1.213-.468-1.95 0-.737.16-1.387.48-1.95.33-.563.776-.997 1.34-1.3a3.825 3.825 0 0 1 1.885-.468c.693 0 1.322.156 1.885.468a3.299 3.299 0 0 1 1.326 1.3c.33.563.494 1.213.494 1.95 0 .737-.17 1.387-.507 1.95a3.456 3.456 0 0 1-1.352 1.313c-.564.303-1.196.455-1.898.455Zm0-1.586c.33 0 .637-.078.923-.234.294-.165.528-.407.702-.728.173-.321.26-.711.26-1.17 0-.685-.182-1.209-.546-1.573a1.741 1.741 0 0 0-1.313-.559c-.52 0-.958.186-1.313.559-.347.364-.52.888-.52 1.573 0 .685.169 1.213.507 1.586.347.364.78.546 1.3.546Zm11.89-5.733V117H34.37v-.91a2.448 2.448 0 0 1-.923.741c-.373.173-.78.26-1.222.26-.563 0-1.062-.117-1.495-.351a2.617 2.617 0 0 1-1.027-1.053c-.243-.468-.364-1.023-.364-1.664v-4.225h1.82v3.965c0 .572.143 1.014.429 1.326.286.303.676.455 1.17.455.503 0 .897-.152 1.183-.455.286-.312.429-.754.429-1.326v-3.965h1.833Zm3.617 1.118c.234-.381.537-.68.91-.897a2.581 2.581 0 0 1 1.3-.325v1.911h-.481c-.572 0-1.006.134-1.3.403-.286.269-.43.737-.43 1.404V117h-1.82v-7.202h1.82v1.118Zm12.136-2.99v1.469h-3.783v2.327h2.9v1.443h-2.9V117h-1.82v-9.074h5.603Zm4.489 9.191c-.694 0-1.318-.152-1.872-.455a3.415 3.415 0 0 1-1.313-1.313c-.312-.563-.468-1.213-.468-1.95 0-.737.16-1.387.48-1.95.33-.563.776-.997 1.34-1.3a3.824 3.824 0 0 1 1.885-.468c.693 0 1.321.156 1.885.468a3.3 3.3 0 0 1 1.326 1.3c.329.563.494 1.213.494 1.95 0 .737-.17 1.387-.507 1.95a3.457 3.457 0 0 1-1.352 1.313c-.564.303-1.196.455-1.898.455Zm0-1.586c.329 0 .637-.078.923-.234a1.78 1.78 0 0 0 .702-.728c.173-.321.26-.711.26-1.17 0-.685-.182-1.209-.546-1.573a1.742 1.742 0 0 0-1.313-.559c-.52 0-.958.186-1.313.559-.347.364-.52.888-.52 1.573 0 .685.169 1.213.507 1.586.346.364.78.546 1.3.546Zm8.29 1.586c-.694 0-1.318-.152-1.872-.455a3.416 3.416 0 0 1-1.313-1.313c-.312-.563-.468-1.213-.468-1.95 0-.737.16-1.387.48-1.95.33-.563.776-.997 1.34-1.3a3.824 3.824 0 0 1 1.885-.468c.693 0 1.321.156 1.885.468a3.3 3.3 0 0 1 1.326 1.3c.329.563.494 1.213.494 1.95 0 .737-.17 1.387-.507 1.95a3.456 3.456 0 0 1-1.352 1.313c-.564.303-1.196.455-1.898.455Zm0-1.586c.329 0 .637-.078.923-.234.294-.165.528-.407.702-.728.173-.321.26-.711.26-1.17 0-.685-.182-1.209-.546-1.573a1.741 1.741 0 0 0-1.313-.559c-.52 0-.958.186-1.313.559-.347.364-.52.888-.52 1.573 0 .685.169 1.213.507 1.586.346.364.78.546 1.3.546Zm4.624-2.158c0-.728.143-1.374.429-1.937a3.221 3.221 0 0 1 1.196-1.3 3.186 3.186 0 0 1 1.677-.455c.468 0 .914.104 1.339.312a2.62 2.62 0 0 1 1.014.806v-3.419h1.846V117h-1.846v-1.066a2.471 2.471 0 0 1-.95.858c-.407.217-.879.325-1.416.325a3.094 3.094 0 0 1-1.664-.468 3.317 3.317 0 0 1-1.196-1.313c-.286-.572-.43-1.226-.43-1.963Zm5.668.026c0-.442-.087-.819-.26-1.131a1.778 1.778 0 0 0-.702-.728 1.843 1.843 0 0 0-.95-.26c-.337 0-.65.082-.935.247-.286.165-.52.407-.702.728-.174.312-.26.685-.26 1.118 0 .433.086.815.26 1.144.182.321.416.568.702.741.294.173.606.26.936.26.338 0 .654-.082.949-.247.294-.173.528-.416.702-.728.173-.321.26-.702.26-1.144Zm14.235-5.473V117h-1.82v-3.861h-3.887V117h-1.82v-9.074h1.82v3.731h3.887v-3.731h1.82Zm1.323 5.447c0-.728.143-1.374.43-1.937.294-.563.688-.997 1.182-1.3a3.186 3.186 0 0 1 1.677-.455c.538 0 1.006.108 1.404.325.408.217.733.49.975.819v-1.027h1.833V117h-1.833v-1.053c-.234.338-.559.62-.975.845-.407.217-.88.325-1.417.325a3.093 3.093 0 0 1-1.664-.468 3.352 3.352 0 0 1-1.183-1.313c-.286-.572-.429-1.226-.429-1.963Zm5.668.026c0-.442-.086-.819-.26-1.131a1.778 1.778 0 0 0-.702-.728 1.844 1.844 0 0 0-.949-.26c-.338 0-.65.082-.936.247-.286.165-.52.407-.702.728-.173.312-.26.685-.26 1.118 0 .433.087.815.26 1.144.182.321.416.568.702.741.295.173.607.26.936.26.338 0 .655-.082.95-.247.294-.173.528-.416.701-.728.174-.321.26-.702.26-1.144Zm6.367 3.718c-.589 0-1.118-.104-1.586-.312a2.912 2.912 0 0 1-1.118-.871 2.217 2.217 0 0 1-.442-1.209h1.833c.035.277.169.507.403.689.243.182.542.273.897.273.347 0 .615-.069.806-.208.199-.139.299-.316.299-.533 0-.234-.121-.407-.364-.52-.234-.121-.611-.251-1.131-.39a9.943 9.943 0 0 1-1.326-.403 2.358 2.358 0 0 1-.884-.637c-.243-.286-.364-.672-.364-1.157 0-.399.112-.763.338-1.092.234-.329.563-.589.988-.78.433-.191.94-.286 1.521-.286.858 0 1.543.217 2.054.65.511.425.793 1.001.845 1.729h-1.742a.913.913 0 0 0-.364-.676c-.208-.173-.49-.26-.845-.26-.329 0-.585.061-.767.182a.584.584 0 0 0-.26.507c0 .243.121.429.364.559.243.121.62.247 1.131.377.52.13.949.264 1.287.403.338.139.628.355.871.65.251.286.381.667.39 1.144 0 .416-.117.789-.351 1.118-.225.329-.555.589-.988.78-.425.182-.923.273-1.495.273Zm-61.183 20.154h-3.614L37.223 139h-1.91l3.262-9.087h2.12L43.956 139h-1.924l-.598-1.729Zm-.494-1.456-1.313-3.796-1.313 3.796h2.626Zm6.056-2.899c.234-.381.537-.68.91-.897a2.581 2.581 0 0 1 1.3-.325v1.911h-.481c-.572 0-1.005.134-1.3.403-.286.269-.43.737-.43 1.404V139h-1.82v-7.202h1.82v1.118Zm5.256 0c.234-.381.537-.68.91-.897a2.582 2.582 0 0 1 1.3-.325v1.911h-.481c-.572 0-1.006.134-1.3.403-.286.269-.43.737-.43 1.404V139h-1.82v-7.202h1.82v1.118Zm4.358-1.976c-.32 0-.589-.1-.805-.299a1.043 1.043 0 0 1-.313-.767 1 1 0 0 1 .313-.754c.216-.208.485-.312.806-.312.32 0 .584.104.792.312a.98.98 0 0 1 .325.754c0 .303-.108.559-.325.767a1.1 1.1 0 0 1-.793.299Zm.898.858V139h-1.82v-7.202h1.82Zm4.8 5.525 1.82-5.525h1.938L63.402 139h-2.21l-2.652-7.202h1.95l1.82 5.525Zm11.475-2.08c0 .26-.017.494-.052.702h-5.265c.043.52.225.927.546 1.222.32.295.715.442 1.183.442.676 0 1.157-.29 1.443-.871h1.963a3.317 3.317 0 0 1-1.196 1.716c-.59.442-1.313.663-2.171.663-.693 0-1.317-.152-1.872-.455a3.351 3.351 0 0 1-1.287-1.313c-.303-.563-.455-1.213-.455-1.95 0-.745.152-1.4.455-1.963a3.175 3.175 0 0 1 1.274-1.3c.546-.303 1.174-.455 1.885-.455.685 0 1.296.147 1.833.442.546.295.966.715 1.26 1.261.304.537.456 1.157.456 1.859Zm-1.885-.52c-.009-.468-.178-.841-.507-1.118-.33-.286-.732-.429-1.21-.429-.45 0-.831.139-1.143.416-.303.269-.49.646-.56 1.131h3.42Zm2.745.65c0-.728.143-1.374.43-1.937a3.221 3.221 0 0 1 1.195-1.3 3.186 3.186 0 0 1 1.677-.455c.468 0 .915.104 1.34.312a2.62 2.62 0 0 1 1.013.806v-3.419h1.846V139H80.3v-1.066a2.471 2.471 0 0 1-.949.858c-.407.217-.88.325-1.417.325a3.094 3.094 0 0 1-1.664-.468 3.317 3.317 0 0 1-1.196-1.313c-.286-.572-.429-1.226-.429-1.963Zm5.668.026c0-.442-.086-.819-.26-1.131a1.778 1.778 0 0 0-.702-.728 1.843 1.843 0 0 0-.949-.26c-.338 0-.65.082-.936.247-.286.165-.52.407-.702.728-.173.312-.26.685-.26 1.118 0 .433.087.815.26 1.144.182.321.416.568.702.741.295.173.607.26.936.26.338 0 .655-.082.95-.247.294-.173.528-.416.701-.728.174-.321.26-.702.26-1.144Z"/></svg>
