<svg xmlns="http://www.w3.org/2000/svg" fill="none" viewBox="0 0 13 18"><path fill="currentcolor" d="m2.378.397.989-.298a2.33 2.33 0 0 1 2.797 1.275l.765 1.7a2.33 2.33 0 0 1-.537 2.66l-1.265 1.18a.212.212 0 0 0-.067.132c-.037.336.191.99.716 1.902.383.661.73 1.127 1.023 1.387.205.182.318.22.366.207l1.703-.52a2.33 2.33 0 0 1 2.571.864l1.085 1.504a2.33 2.33 0 0 1-.287 3.055l-.75.712a3.178 3.178 0 0 1-3.04.753c-2.333-.652-4.425-2.62-6.3-5.867C.271 7.793-.388 4.993.22 2.643A3.177 3.177 0 0 1 2.378.398Zm.367 1.217a1.907 1.907 0 0 0-1.296 1.347c-.51 1.976.074 4.458 1.799 7.447 1.723 2.984 3.577 4.73 5.541 5.278a1.906 1.906 0 0 0 1.823-.452l.752-.712a1.06 1.06 0 0 0 .13-1.389L10.41 11.63a1.059 1.059 0 0 0-1.169-.394l-1.707.523c-.991.295-1.891-.502-2.857-2.176-.651-1.127-.954-2-.879-2.678.04-.353.203-.678.463-.92l1.266-1.18a1.06 1.06 0 0 0 .244-1.21l-.765-1.7a1.06 1.06 0 0 0-1.27-.579l-.99.298Z"/></svg>
