<svg xmlns="http://www.w3.org/2000/svg" fill="none" viewBox="0 0 80 80"><path fill="url(#a)" d="M40 70.476c16.832 0 30.476-13.645 30.476-30.476S56.832 9.524 40 9.524C23.17 9.524 9.524 23.169 9.524 40S23.169 70.476 40 70.476Z"/><path fill="url(#b)" d="M40 70.476c16.832 0 30.476-13.645 30.476-30.476S56.832 9.524 40 9.524C23.17 9.524 9.524 23.169 9.524 40S23.169 70.476 40 70.476Z" opacity=".5"/><path fill="url(#c)" d="M60.572 45.162a1.119 1.119 0 0 0-.705-.038A72.61 72.61 0 0 1 40 47.886a72.713 72.713 0 0 1-19.867-2.762 1.002 1.002 0 0 0-.704.038c-.705.285-1.79 1.333-.343 5.352 2.19 5.124 7.886 14.133 20.933 14.133 12.99 0 18.724-9.028 20.914-14.152 1.429-4 .343-5.047-.361-5.333Z"/><path fill="url(#d)" d="M31.943 25.619c-.324-1.181-1.81-1.562-4-.952-1.867.514-5.657 2.685-7.448 7.085-.323.82.572.953.953.381 1.314-1.943 5.428-5.143 9.143-5.752 1.504-.229 1.352-.762 1.352-.762Z"/><path fill="url(#e)" d="M31.753 35.086c-2.115-1.314-4.838-1.162-6.82.324-1.009.762-2 1.923-2.59 3.733a4.016 4.016 0 0 0-.19.952c-.038.648.419 1.238 1.143.553 5.638-5.315 9.58.152 9.58.152.762.553 1.543-.59 1.39-1.657-.037-.305-.075-.629-.17-.914-.42-1.543-1.353-2.515-2.343-3.143Z"/><path fill="url(#f)" d="M40 63.238c5.39 0 9.448-1.657 12.476-3.924C49.143 57.81 45.048 56.82 40 56.82c-5.047 0-9.162.99-12.495 2.495 3.029 2.267 7.086 3.924 12.495 3.924Z"/><path fill="url(#g)" d="M60.172 45.067c-.039 0-.096 0-.134.019A72.535 72.535 0 0 1 40 47.905a72.334 72.334 0 0 1-20.038-2.82c-.038-.018-.095-.018-.133-.018-.438.038-2.534.476-.743 5.447.876 2.076 2.343 4.762 4.628 7.257-2.133-2.533.496-3.943 5.2-3.371 4.705.571 11.105.571 11.105.571s6.42-.019 11.105-.571c4.705-.572 7.333.838 5.2 3.371 2.286-2.495 3.733-5.18 4.629-7.257 1.752-4.971-.343-5.41-.782-5.447Z"/><path fill="url(#h)" d="M56.552 52.038a4.17 4.17 0 0 0 3.296-3.695l.171-1.772A73.706 73.706 0 0 1 40 49.333c-6.8 0-13.543-.933-20.038-2.762l.171 1.772a4.192 4.192 0 0 0 3.296 3.695A78.932 78.932 0 0 0 39.98 53.81c5.6 0 11.162-.591 16.571-1.772Z"/><path fill="url(#i)" d="M34.114 38.229a7.286 7.286 0 0 0-.761-1.639 5.522 5.522 0 0 0-1.581-1.485c-2.115-1.314-4.838-1.162-6.82.324-1.009.761-2 1.923-2.59 3.733-.057.171-.095.362-.133.552v.02c2.476-3.867 6.057-4.134 6.057-4.134s3.543-.305 5.943 3.162c-.038-.19-.076-.362-.114-.533Z"/><path fill="url(#j)" d="M48.057 25.619c.324-1.181 1.81-1.562 4-.952 1.867.514 5.657 2.685 7.448 7.085.324.82-.572.953-.953.381-1.314-1.943-5.428-5.143-9.142-5.752-1.505-.229-1.353-.762-1.353-.762Z"/><path fill="url(#k)" d="M48.248 35.086c2.114-1.314 4.838-1.162 6.819.324 1.01.762 2 1.923 2.59 3.733.096.305.172.629.19.952.039.648-.418 1.238-1.142.553-5.638-5.315-9.581.152-9.581.152-.762.553-1.543-.59-1.39-1.657.038-.305.076-.629.171-.914.419-1.543 1.352-2.515 2.343-3.143Z"/><path fill="url(#l)" d="M45.886 38.229c.21-.648.476-1.181.762-1.639a5.522 5.522 0 0 1 1.58-1.485c2.115-1.314 4.839-1.162 6.82.324 1.01.761 2 1.923 2.59 3.733.057.171.095.362.134.552v.02c-2.477-3.867-6.058-4.134-6.058-4.134s-3.542-.305-5.942 3.162c.038-.19.076-.362.114-.533Z"/><defs><radialGradient id="a" cx="0" cy="0" r="1" gradientTransform="translate(34.004 27.649) scale(36.7656)" gradientUnits="userSpaceOnUse"><stop stop-color="#FFE030"/><stop offset="1" stop-color="#FFB92E"/></radialGradient><radialGradient id="b" cx="0" cy="0" r="1" gradientTransform="translate(34.004 27.649) scale(28.9251)" gradientUnits="userSpaceOnUse"><stop stop-color="#FFEA5F"/><stop offset="1" stop-color="#FFBC47" stop-opacity="0"/></radialGradient><radialGradient id="c" cx="0" cy="0" r="1" gradientTransform="translate(40 54.875) scale(16.7888)" gradientUnits="userSpaceOnUse"><stop offset=".001" stop-color="#7A4400"/><stop offset="1" stop-color="#643800"/></radialGradient><radialGradient id="e" cx="0" cy="0" r="1" gradientTransform="rotate(175.474 13.397 19.45) scale(4.70179 3.33396)" gradientUnits="userSpaceOnUse"><stop offset=".001" stop-color="#7A4400"/><stop offset="1" stop-color="#643800"/></radialGradient><radialGradient id="f" cx="0" cy="0" r="1" gradientTransform="matrix(13.9142 0 0 4.20626 40.252 60.781)" gradientUnits="userSpaceOnUse"><stop offset=".248" stop-color="red"/><stop offset="1" stop-color="#C20000"/></radialGradient><radialGradient id="h" cx="0" cy="0" r="1" gradientTransform="translate(40 50.191) scale(36.8182)" gradientUnits="userSpaceOnUse"><stop offset=".001" stop-color="#fff"/><stop offset="1" stop-color="#A9BCBE"/></radialGradient><radialGradient id="k" cx="0" cy="0" r="1" gradientTransform="rotate(4.526 -452.23 673.23) scale(4.70178 3.33396)" gradientUnits="userSpaceOnUse"><stop offset=".001" stop-color="#7A4400"/><stop offset="1" stop-color="#643800"/></radialGradient><linearGradient id="d" x1="26.273" x2="25.407" y1="29.331" y2="26.238" gradientUnits="userSpaceOnUse"><stop offset=".001" stop-color="#3C2200"/><stop offset="1" stop-color="#7A4400"/></linearGradient><linearGradient id="g" x1="61.392" x2="18.869" y1="51.424" y2="51.424" gradientUnits="userSpaceOnUse"><stop offset=".001" stop-color="#3C2200"/><stop offset=".5" stop-color="#512D00"/><stop offset="1" stop-color="#3C2200"/></linearGradient><linearGradient id="i" x1="28.746" x2="28.372" y1="31.864" y2="36.981" gradientUnits="userSpaceOnUse"><stop offset=".001" stop-color="#3C2200"/><stop offset="1" stop-color="#512D00"/></linearGradient><linearGradient id="j" x1="53.73" x2="54.596" y1="29.331" y2="26.238" gradientUnits="userSpaceOnUse"><stop offset=".001" stop-color="#3C2200"/><stop offset="1" stop-color="#7A4400"/></linearGradient><linearGradient id="l" x1="51.253" x2="51.626" y1="31.864" y2="36.981" gradientUnits="userSpaceOnUse"><stop offset=".001" stop-color="#3C2200"/><stop offset="1" stop-color="#512D00"/></linearGradient></defs></svg>
