<svg xmlns="http://www.w3.org/2000/svg" fill="none" viewBox="0 0 80 80"><path fill="url(#a)" d="M40 70.476c16.832 0 30.476-13.645 30.476-30.476S56.832 9.524 40 9.524C23.17 9.524 9.524 23.169 9.524 40S23.169 70.476 40 70.476Z"/><path fill="url(#b)" d="M40 70.476c16.832 0 30.476-13.645 30.476-30.476S56.832 9.524 40 9.524C23.17 9.524 9.524 23.169 9.524 40S23.169 70.476 40 70.476Z" opacity=".5"/><path fill="url(#c)" d="M31.943 23.714c-.324-1.18-1.81-1.562-4-.952-1.867.514-5.657 2.686-7.448 7.085-.323.82.572.953.953.381 1.314-1.942 5.428-5.142 9.143-5.752 1.504-.229 1.352-.762 1.352-.762Z"/><path fill="url(#d)" d="M31.752 33.181c-2.114-1.314-4.838-1.162-6.819.324-1.01.762-2 1.924-2.59 3.733a4.023 4.023 0 0 0-.19.953c-.039.647.418 1.238 1.142.552 5.638-5.314 9.581.152 9.581.152.762.553 1.543-.59 1.39-1.657-.038-.305-.075-.628-.17-.914-.42-1.543-1.353-2.514-2.344-3.143Z"/><path fill="url(#e)" d="M34.114 36.324a7.286 7.286 0 0 0-.762-1.638 5.522 5.522 0 0 0-1.58-1.486c-2.115-1.314-4.839-1.162-6.82.324-1.01.762-2 1.924-2.59 3.733a4.693 4.693 0 0 0-.133.553v.019c2.476-3.867 6.057-4.134 6.057-4.134s3.542-.304 5.942 3.162c-.038-.19-.076-.362-.114-.533Z"/><path fill="url(#f)" d="M48.057 23.714c.324-1.18 1.81-1.562 4-.952 1.867.514 5.657 2.686 7.448 7.085.324.82-.572.953-.953.381-1.314-1.942-5.428-5.142-9.142-5.752-1.505-.229-1.353-.762-1.353-.762Z"/><path fill="url(#g)" d="M48.248 33.181c2.114-1.314 4.838-1.162 6.819.324 1.01.762 2 1.924 2.59 3.733.096.305.172.629.19.953.039.647-.418 1.238-1.142.552-5.638-5.314-9.581.152-9.581.152-.762.553-1.543-.59-1.39-1.657.038-.305.076-.628.171-.914.419-1.543 1.352-2.514 2.343-3.143Z"/><path fill="url(#h)" d="M45.886 36.324c.21-.648.476-1.181.762-1.638a5.522 5.522 0 0 1 1.58-1.486c2.115-1.314 4.839-1.162 6.82.324 1.01.762 2 1.924 2.59 3.733.058.172.096.362.134.553v.019c-2.477-3.867-6.057-4.134-6.057-4.134s-3.543-.304-5.943 3.162c.038-.19.076-.362.114-.533Z"/><path fill="url(#i)" d="M40 70.476c16.832 0 30.476-13.645 30.476-30.476S56.832 9.524 40 9.524C23.17 9.524 9.524 23.169 9.524 40S23.169 70.476 40 70.476Z"/><path fill="url(#j)" d="m58.038 55.524-5.467-.438-2.438 4.228c3.353 2.133 2.61 6.61 2.4 8.457a30.792 30.792 0 0 0 10.629-7.98c-.876-2-2.42-4.039-5.124-4.267Z"/><path fill="url(#k)" d="M40 61.619c13.639 0 18.305-10 19.581-12.476 1.276-2.477-.933-3.6-1.733-1.867C55.543 52.19 49.924 59.009 40 59.009c-9.923 0-15.543-6.819-17.847-11.733-.8-1.714-3.01-.61-1.734 1.867C21.696 51.619 26.362 61.619 40 61.619Z"/><path fill="#3C2200" d="M57.848 47.276C55.543 52.19 49.924 59.009 40 59.009c-9.923 0-15.543-6.819-17.847-11.733-.8-1.714-3.01-.61-1.734 1.867 0 0 .42-1.905 1.105-.99C23.2 50.38 26.991 59.942 40 59.942c3.867 0 6.762-1.2 9.334-2.134 1.219-.438 1.505 1.124 1.505 1.124s.704-.343 1.066-.667c.229-.19-.857-1.41-.628-1.58 4.323-2.991 6.152-7.162 7.18-8.534.686-.914 1.105.99 1.105.99 1.277-2.476-.914-3.58-1.714-1.866Z"/><path fill="url(#l)" d="m64.267 52.648-4.362-4.153c-.229-.247-1.143-.838-2.229-.895-1.371 2.82-3.828 6.172-7.505 8.514-.152.438.381.762.477.858l4.323 4.533c2.686 2.8 7.048 3.219 9.6.762 2.553-2.457 2.381-6.8-.304-9.62Z"/><path fill="url(#m)" d="m64.267 52.648-4.362-4.153c-.229-.247-1.143-.838-2.229-.895-1.371 2.82-3.81 6.172-7.486 8.495-.152.438.382.762.477.857l4.323 4.534c2.686 2.8 7.048 3.219 9.6.762 2.553-2.457 2.362-6.781-.323-9.6Z"/><path fill="url(#n)" d="m64.267 52.648-4.362-4.153c-.229-.247-1.143-.838-2.229-.895-1.371 2.82-3.81 6.172-7.486 8.495-.152.438.382.762.477.857l4.323 4.534c2.686 2.8 7.048 3.219 9.6.762 2.553-2.457 2.362-6.781-.323-9.6Z"/><path fill="url(#o)" d="m55.943 54.171.971-.914c6.229 6.514 6.096 6.82 5.829 7.067-.286.266-.61.343-6.8-6.153Z"/><defs><radialGradient id="a" cx="0" cy="0" r="1" gradientTransform="translate(34.004 27.649) scale(36.7656)" gradientUnits="userSpaceOnUse"><stop stop-color="#FFE030"/><stop offset="1" stop-color="#FFB92E"/></radialGradient><radialGradient id="b" cx="0" cy="0" r="1" gradientTransform="translate(34.004 27.649) scale(28.9251)" gradientUnits="userSpaceOnUse"><stop stop-color="#FFEA5F"/><stop offset="1" stop-color="#FFBC47" stop-opacity="0"/></radialGradient><radialGradient id="d" cx="0" cy="0" r="1" gradientTransform="rotate(175.474 13.42 18.497) scale(4.70179 3.33396)" gradientUnits="userSpaceOnUse"><stop offset=".001" stop-color="#7A4400"/><stop offset="1" stop-color="#643800"/></radialGradient><radialGradient id="g" cx="0" cy="0" r="1" gradientTransform="matrix(4.68713 .371 -.26306 3.32357 51.706 35.877)" gradientUnits="userSpaceOnUse"><stop offset=".001" stop-color="#7A4400"/><stop offset="1" stop-color="#643800"/></radialGradient><radialGradient id="i" cx="0" cy="0" r="1" gradientTransform="translate(68.447 71.177) scale(21.7262)" gradientUnits="userSpaceOnUse"><stop stop-color="#FF4C00"/><stop offset="1" stop-color="#E74A3A" stop-opacity="0"/></radialGradient><radialGradient id="j" cx="0" cy="0" r="1" gradientTransform="translate(54.934 59.656) scale(6.65457)" gradientUnits="userSpaceOnUse"><stop stop-color="#FF8000" stop-opacity=".5"/><stop offset=".995" stop-color="#FF8000" stop-opacity="0"/></radialGradient><radialGradient id="k" cx="0" cy="0" r="1" gradientTransform="translate(40 54.035) scale(15.0994)" gradientUnits="userSpaceOnUse"><stop offset=".001" stop-color="#7A4400"/><stop offset="1" stop-color="#643800"/></radialGradient><radialGradient id="n" cx="0" cy="0" r="1" gradientTransform="translate(42.6 43.148) scale(18.4017)" gradientUnits="userSpaceOnUse"><stop offset=".682" stop-color="#860805"/><stop offset="1" stop-color="#860805" stop-opacity="0"/></radialGradient><linearGradient id="c" x1="26.296" x2="25.43" y1="27.419" y2="24.326" gradientUnits="userSpaceOnUse"><stop offset=".001" stop-color="#3C2200"/><stop offset="1" stop-color="#7A4400"/></linearGradient><linearGradient id="e" x1="28.744" x2="28.371" y1="29.958" y2="35.076" gradientUnits="userSpaceOnUse"><stop offset=".001" stop-color="#3C2200"/><stop offset="1" stop-color="#512D00"/></linearGradient><linearGradient id="f" x1="53.736" x2="54.602" y1="27.424" y2="24.332" gradientUnits="userSpaceOnUse"><stop offset=".001" stop-color="#3C2200"/><stop offset="1" stop-color="#7A4400"/></linearGradient><linearGradient id="h" x1="51.227" x2="51.6" y1="29.96" y2="35.078" gradientUnits="userSpaceOnUse"><stop offset=".001" stop-color="#3C2200"/><stop offset="1" stop-color="#512D00"/></linearGradient><linearGradient id="l" x1="61.301" x2="49.292" y1="57.683" y2="49.641" gradientUnits="userSpaceOnUse"><stop stop-color="#EF708C"/><stop offset="1" stop-color="#D93E15"/></linearGradient><linearGradient id="m" x1="64.706" x2="52.515" y1="59.385" y2="52.274" gradientUnits="userSpaceOnUse"><stop stop-color="#EF708C"/><stop offset="1" stop-color="red"/></linearGradient><linearGradient id="o" x1="57.151" x2="66.839" y1="54.472" y2="64.621" gradientUnits="userSpaceOnUse"><stop stop-color="#D93E15" stop-opacity="0"/><stop offset="1" stop-color="#D93E15"/></linearGradient></defs></svg>
